<svg xmlns="http://www.w3.org/2000/svg" width="1600" height="900" viewBox="0 0 1600 900">
  <defs>
    <filter id="shadow" x="-20%" y="-20%" width="140%" height="140%"><feDropShadow dx="0" dy="10" stdDeviation="14" flood-color="#14233B" flood-opacity=".11"/></filter>
    <marker id="arrow" viewBox="0 0 10 10" refX="9" refY="5" markerWidth="8" markerHeight="8" orient="auto-start-reverse"><path d="M0 0L10 5L0 10Z" fill="#14233B"/></marker>
    <style>text{font-family:'Microsoft YaHei','Noto Sans SC',Arial,sans-serif;letter-spacing:0}.title{font-size:42px;font-weight:800;fill:#14233B}.sub{font-size:18px;fill:#76808D}.h{font-size:24px;font-weight:800;fill:#1C2635}.b{font-size:17px;fill:#1C2635}.s{font-size:14px;fill:#76808D}.num{font-size:34px;font-weight:900}.white{fill:#fff}.bold{font-weight:800}</style>
  </defs>
<text x="70" y="72" class="s" fill="#EF6634" font-weight="800">SYSTEM ARCHITECTURE</text>
  <text x="70" y="125" class="title">软硬件协同的闭环架构</text>
  <text x="70" y="160" class="sub">从视觉感知到机器人主动播报，所有核心数据在本地局域网内完成</text>
  <path d="M70 190H1530" stroke="#DED8CE" stroke-width="2"/>
<g transform="translate(800 500)">
  <circle r="215" fill="#FBF7F0" stroke="#DED8CE" stroke-width="2"/>
  <circle r="150" fill="#14233B"/>
  <g transform="translate(0 -12) scale(1.15)"><rect x="-58" y="-43" width="116" height="86" rx="25" fill="#FFFDF9" stroke="#FFFDF9" stroke-width="5"/><circle cx="-23" cy="-3" r="8" fill="#EAB83F"/><circle cx="23" cy="-3" r="8" fill="#EAB83F"/><path d="M-24 22Q0 38 24 22" stroke="#FFFDF9" stroke-width="5" fill="none" stroke-linecap="round"/><path d="M0-43V-65" stroke="#FFFDF9" stroke-width="5"/><circle cy="-72" r="8" fill="#EF6634"/></g>
  <text x="0" y="92" text-anchor="middle" class="white h">小智桌面学伴</text>
  <text x="0" y="120" text-anchor="middle" class="s" fill="#B9C4D1">主动播报 · 学段切换 · 知识问答</text>
</g>
<rect x="70" y="260" width="390" height="195" rx="8" fill="#FFFDF9" stroke="#DED8CE" stroke-width="2" filter="url(#shadow)"/>
  <rect x="70" y="260" width="8" height="195" rx="4" fill="#EF6634"/><g transform="translate(155 350) scale(0.62)"><rect x="-58" y="-37" width="116" height="74" rx="13" fill="#FFFDF9" stroke="#EF6634" stroke-width="5"/><circle r="25" fill="none" stroke="#EF6634" stroke-width="7"/><circle r="8" fill="#EF6634"/><rect x="-35" y="-53" width="45" height="18" rx="6" fill="#EF6634"/></g><text x="225" y="314" class="h">硬件感知端</text><text x="225" y="352" class="b">本地/手机摄像头</text><text x="225" y="383" class="s">人脸 · 视线 · 姿态 · 离座</text><rect x="225" y="405" width="180" height="38" rx="19" fill="#EF6634" opacity=".13"/><text x="315" y="430" text-anchor="middle" class="s" fill="#EF6634" font-weight="800">MediaPipe</text>
<rect x="1140" y="260" width="390" height="195" rx="8" fill="#FFFDF9" stroke="#DED8CE" stroke-width="2" filter="url(#shadow)"/>
  <rect x="1140" y="260" width="8" height="195" rx="4" fill="#3277C7"/><g transform="translate(1225 350) scale(0.58)"><rect x="-65" y="-48" width="130" height="88" rx="8" fill="#FFFDF9" stroke="#3277C7" stroke-width="5"/><path d="M-25 62H25M0 40V62" stroke="#3277C7" stroke-width="6"/><path d="M-45-20H40M-45 0H20M-45 20H35" stroke="#3277C7" stroke-width="5" stroke-linecap="round"/></g><text x="1295" y="314" class="h">家长交互端</text><text x="1295" y="352" class="b">Web 控制与学习复盘</text><text x="1295" y="383" class="s">留言 · 阈值 · 模式 · 趋势</text><rect x="1295" y="405" width="180" height="38" rx="19" fill="#3277C7" opacity=".13"/><text x="1385" y="430" text-anchor="middle" class="s" fill="#3277C7" font-weight="800">FastAPI + Web</text>
<rect x="70" y="590" width="390" height="195" rx="8" fill="#FFFDF9" stroke="#DED8CE" stroke-width="2" filter="url(#shadow)"/>
  <rect x="70" y="590" width="8" height="195" rx="4" fill="#2F8B68"/><circle cx="155" cy="682" r="48" fill="#2F8B68" opacity=".12"/><path d="M130 690L150 710L184 662" stroke="#2F8B68" stroke-width="10" fill="none"/><text x="225" y="644" class="h">本地智能服务</text><text x="225" y="682" class="b">策略编排与语音生成</text><text x="225" y="713" class="s">WindowsSpeech · DeepSeek · SAPI</text><rect x="225" y="735" width="210" height="38" rx="19" fill="#2F8B68" opacity=".13"/><text x="330" y="760" text-anchor="middle" class="s" fill="#2F8B68" font-weight="800">隐私留在局域网</text>
<rect x="1140" y="590" width="390" height="195" rx="8" fill="#FFFDF9" stroke="#DED8CE" stroke-width="2" filter="url(#shadow)"/>
  <rect x="1140" y="590" width="8" height="195" rx="4" fill="#EAB83F"/><circle cx="1225" cy="682" r="48" fill="#EAB83F" opacity=".18"/><path d="M1200 682H1248M1224 658V706" stroke="#EAB83F" stroke-width="10"/><text x="1295" y="644" class="h">通信下行端</text><text x="1295" y="682" class="b">MQTT 指令 + UDP 音频</text><text x="1295" y="713" class="s">无需按键，机器人立即开口</text><rect x="1295" y="735" width="190" height="38" rx="19" fill="#EAB83F" opacity=".13"/><text x="1390" y="760" text-anchor="middle" class="s" fill="#EAB83F" font-weight="800">主动发声已打通</text>
<path d="M460 360L610 430" stroke="#EF6634" stroke-width="4" fill="none" marker-end="url(#arrow)" /><path d="M1140 360L990 430" stroke="#3277C7" stroke-width="4" fill="none" marker-end="url(#arrow)" /><path d="M460 680L610 570" stroke="#2F8B68" stroke-width="4" fill="none" marker-end="url(#arrow)" /><path d="M1140 680L990 570" stroke="#EAB83F" stroke-width="4" fill="none" marker-end="url(#arrow)" />
</svg>
