<svg xmlns="http://www.w3.org/2000/svg" width="1600" height="900" viewBox="0 0 1600 900">
  <defs>
    <filter id="shadow" x="-20%" y="-20%" width="140%" height="140%"><feDropShadow dx="0" dy="10" stdDeviation="14" flood-color="#14233B" flood-opacity=".11"/></filter>
    <marker id="arrow" viewBox="0 0 10 10" refX="9" refY="5" markerWidth="8" markerHeight="8" orient="auto-start-reverse"><path d="M0 0L10 5L0 10Z" fill="#14233B"/></marker>
    <style>text{font-family:'Microsoft YaHei','Noto Sans SC',Arial,sans-serif;letter-spacing:0}.title{font-size:42px;font-weight:800;fill:#14233B}.sub{font-size:18px;fill:#76808D}.h{font-size:24px;font-weight:800;fill:#1C2635}.b{font-size:17px;fill:#1C2635}.s{font-size:14px;fill:#76808D}.num{font-size:34px;font-weight:900}.white{fill:#fff}.bold{font-weight:800}</style>
  </defs>
<text x="70" y="72" class="s" fill="#EF6634" font-weight="800">VOICE-DRIVEN STUDY MODES</text>
  <text x="70" y="125" class="title">三学段语音状态机</text>
  <text x="70" y="160" class="sub">开机询问、自然语音选择、切换反馈与差异化提醒策略形成完整状态闭环</text>
  <path d="M70 190H1530" stroke="#DED8CE" stroke-width="2"/>
<g transform="translate(800 510)">
  <circle r="250" fill="none" stroke="#DED8CE" stroke-width="26"/>
  <path d="M-216-125A250 250 0 0 1 216-125" fill="none" stroke="#EF6634" stroke-width="28" stroke-linecap="round"/>
  <path d="M216-125A250 250 0 0 1 0 250" fill="none" stroke="#2F8B68" stroke-width="28" stroke-linecap="round"/>
  <path d="M0 250A250 250 0 0 1-216-125" fill="none" stroke="#3277C7" stroke-width="28" stroke-linecap="round"/>
  <circle r="142" fill="#14233B" filter="url(#shadow)"/>
  <text y="-28" text-anchor="middle" class="s" fill="#B7C2D0">开机语音入口</text><text y="20" text-anchor="middle" class="white h">“请选择学习学段”</text><text y="62" text-anchor="middle" class="s" fill="#EAB83F">仅在真正改变时播报反馈</text>
</g>
<rect x="80" y="250" width="360" height="205" rx="8" fill="#FFFDF9" stroke="#DED8CE" stroke-width="2" filter="url(#shadow)"/>
  <rect x="80" y="250" width="8" height="205" rx="4" fill="#EF6634"/><text x="120" y="305" class="s" fill="#EF6634" font-weight="800">PRIMARY</text><text x="120" y="350" class="h">小学模式</text><text x="120" y="388" class="b">短句 · 鼓励式 · 高频正反馈</text><rect x="120" y="415" width="210" height="38" rx="19" fill="#EF6634" opacity=".13"/><text x="225" y="440" text-anchor="middle" class="s" fill="#EF6634" font-weight="800">宽容阈值 / 温和提醒</text>
<rect x="1160" y="250" width="360" height="205" rx="8" fill="#FFFDF9" stroke="#DED8CE" stroke-width="2" filter="url(#shadow)"/>
  <rect x="1160" y="250" width="8" height="205" rx="4" fill="#2F8B68"/><text x="1200" y="305" class="s" fill="#2F8B68" font-weight="800">MIDDLE</text><text x="1200" y="350" class="h">初中模式</text><text x="1200" y="388" class="b">目标拆解 · 节奏管理 · 复盘</text><rect x="1200" y="415" width="210" height="38" rx="19" fill="#2F8B68" opacity=".13"/><text x="1305" y="440" text-anchor="middle" class="s" fill="#2F8B68" font-weight="800">标准阈值 / 任务导向</text>
<rect x="80" y="620" width="360" height="205" rx="8" fill="#FFFDF9" stroke="#DED8CE" stroke-width="2" filter="url(#shadow)"/>
  <rect x="80" y="620" width="8" height="205" rx="4" fill="#3277C7"/><text x="120" y="675" class="s" fill="#3277C7" font-weight="800">HIGH</text><text x="120" y="720" class="h">高中模式</text><text x="120" y="758" class="b">克制提醒 · 自主规划 · 效率</text><rect x="120" y="785" width="210" height="38" rx="19" fill="#3277C7" opacity=".13"/><text x="225" y="810" text-anchor="middle" class="s" fill="#3277C7" font-weight="800">严格阈值 / 尊重自主</text>
<rect x="1160" y="620" width="360" height="205" rx="8" fill="#FFFDF9" stroke="#DED8CE" stroke-width="2" filter="url(#shadow)"/>
  <rect x="1160" y="620" width="8" height="205" rx="4" fill="#EAB83F"/><text x="1200" y="675" class="s" fill="#9A7310" font-weight="800">FEEDBACK</text><text x="1200" y="720" class="h">双向切换反馈</text><text x="1200" y="758" class="b">语音选择与家长端切换同步</text><rect x="1200" y="785" width="245" height="38" rx="19" fill="#EAB83F" opacity=".13"/><text x="1322.5" y="810" text-anchor="middle" class="s" fill="#EAB83F" font-weight="800">“已进入 ×× 模式”</text>
</svg>
