<svg xmlns="http://www.w3.org/2000/svg" width="1600" height="900" viewBox="0 0 1600 900">
  <defs>
    <filter id="shadow" x="-20%" y="-20%" width="140%" height="140%"><feDropShadow dx="0" dy="10" stdDeviation="14" flood-color="#14233B" flood-opacity=".11"/></filter>
    <marker id="arrow" viewBox="0 0 10 10" refX="9" refY="5" markerWidth="8" markerHeight="8" orient="auto-start-reverse"><path d="M0 0L10 5L0 10Z" fill="#14233B"/></marker>
    <style>text{font-family:'Microsoft YaHei','Noto Sans SC',Arial,sans-serif;letter-spacing:0}.title{font-size:42px;font-weight:800;fill:#14233B}.sub{font-size:18px;fill:#76808D}.h{font-size:24px;font-weight:800;fill:#1C2635}.b{font-size:17px;fill:#1C2635}.s{font-size:14px;fill:#76808D}.num{font-size:34px;font-weight:900}.white{fill:#fff}.bold{font-weight:800}</style>
  </defs>
<text x="70" y="72" class="s" fill="#EF6634" font-weight="800">TWO-DAY ENGINEERING SPRINT</text>
  <text x="70" y="125" class="title">两日工程成果矩阵</text>
  <text x="70" y="160" class="sub">不是单点演示，而是从固件、服务、算法、交互到验证的完整工程闭环</text>
  <path d="M70 190H1530" stroke="#DED8CE" stroke-width="2"/>
<g transform="translate(70 235)">
  <rect width="1460" height="560" rx="8" fill="#FFFDF9" stroke="#DED8CE" stroke-width="2" filter="url(#shadow)"/>
  <rect width="1460" height="78" rx="8" fill="#14233B"/>
  <text x="45" y="49" class="white h">工作层</text><text x="335" y="49" class="white h">关键突破</text><text x="960" y="49" class="white h">可验证结果</text><text x="1285" y="49" class="white h">状态</text>
  <rect x="0" y="78" width="1460" height="80" fill="#FFFDF9"/><rect x="18" y="96" width="8" height="44" rx="4" fill="#EF6634"/><text x="45" y="127" class="b bold">固件层</text><text x="335" y="127" class="b">ESP32 本地 OTA 地址、主动播报下行适配</text><text x="960" y="127" class="b">开机即连本地服务，支持无按键播报</text><rect x="1280" y="100" width="120" height="36" rx="18" fill="#EF6634" opacity=".14"/><text x="1340" y="125" text-anchor="middle" class="s" fill="#EF6634" font-weight="800">已打通</text><rect x="0" y="158" width="1460" height="80" fill="#FBF7F0"/><rect x="18" y="176" width="8" height="44" rx="4" fill="#2F8B68"/><text x="45" y="207" class="b bold">通信层</text><text x="335" y="207" class="b">MQTT 唤醒 + UDP/TTS 音频推送</text><text x="960" y="207" class="b">家长留言与分心事件均可主动发声</text><rect x="1280" y="180" width="120" height="36" rx="18" fill="#2F8B68" opacity=".14"/><text x="1340" y="205" text-anchor="middle" class="s" fill="#2F8B68" font-weight="800">已打通</text><rect x="0" y="238" width="1460" height="80" fill="#FFFDF9"/><rect x="18" y="256" width="8" height="44" rx="4" fill="#3277C7"/><text x="45" y="287" class="b bold">智能层</text><text x="335" y="287" class="b">WindowsSpeech 中文 ASR + DeepSeek 对话</text><text x="960" y="287" class="b">“高中”“你好”“1+1”均正常识别应答</text><rect x="1280" y="260" width="120" height="36" rx="18" fill="#3277C7" opacity=".14"/><text x="1340" y="285" text-anchor="middle" class="s" fill="#3277C7" font-weight="800">已打通</text><rect x="0" y="318" width="1460" height="80" fill="#FBF7F0"/><rect x="18" y="336" width="8" height="44" rx="4" fill="#EAB83F"/><text x="45" y="367" class="b bold">策略层</text><text x="335" y="367" class="b">小学 / 初中 / 高中三套差异化策略</text><text x="960" y="367" class="b">语音选择、家长切换、仅变更时播报</text><rect x="1280" y="340" width="120" height="36" rx="18" fill="#EAB83F" opacity=".14"/><text x="1340" y="365" text-anchor="middle" class="s" fill="#EAB83F" font-weight="800">已打通</text><rect x="0" y="398" width="1460" height="80" fill="#FFFDF9"/><rect x="18" y="416" width="8" height="44" rx="4" fill="#EF6634"/><text x="45" y="447" class="b bold">产品层</text><text x="335" y="447" class="b">家长端、专注分析、本地智能体运行中心</text><text x="960" y="447" class="b">状态可视、提醒可追溯、网络可诊断</text><rect x="1280" y="420" width="120" height="36" rx="18" fill="#EF6634" opacity=".14"/><text x="1340" y="445" text-anchor="middle" class="s" fill="#EF6634" font-weight="800">可展示</text><rect x="0" y="478" width="1460" height="80" fill="#FBF7F0"/><rect x="18" y="496" width="8" height="44" rx="4" fill="#2F8B68"/><text x="45" y="527" class="b bold">质量层</text><text x="335" y="527" class="b">接口、策略、语音与迁移测试覆盖</text><text x="960" y="527" class="b">131 项自动化测试通过</text><rect x="1280" y="500" width="120" height="36" rx="18" fill="#2F8B68" opacity=".14"/><text x="1340" y="525" text-anchor="middle" class="s" fill="#2F8B68" font-weight="800">通过</text>
</g>
</svg>