<svg xmlns="http://www.w3.org/2000/svg" width="1600" height="900" viewBox="0 0 1600 900">
  <defs>
    <filter id="shadow" x="-20%" y="-20%" width="140%" height="140%"><feDropShadow dx="0" dy="10" stdDeviation="14" flood-color="#14233B" flood-opacity=".11"/></filter>
    <marker id="arrow" viewBox="0 0 10 10" refX="9" refY="5" markerWidth="8" markerHeight="8" orient="auto-start-reverse"><path d="M0 0L10 5L0 10Z" fill="#14233B"/></marker>
    <style>text{font-family:'Microsoft YaHei','Noto Sans SC',Arial,sans-serif;letter-spacing:0}.title{font-size:42px;font-weight:800;fill:#14233B}.sub{font-size:18px;fill:#76808D}.h{font-size:24px;font-weight:800;fill:#1C2635}.b{font-size:17px;fill:#1C2635}.s{font-size:14px;fill:#76808D}.num{font-size:34px;font-weight:900}.white{fill:#fff}.bold{font-weight:800}</style>
  </defs>
<text x="70" y="72" class="s" fill="#EF6634" font-weight="800">LOCAL VS. CLOUD CONSOLE</text>
  <text x="70" y="125" class="title">本地部署与官方智能体：保留能力，补齐主动性</text>
  <text x="70" y="160" class="sub">官方控制台继续作为安全回退；本地服务新增视觉闭环、主动播报和工程可观测性</text>
  <path d="M70 190H1530" stroke="#DED8CE" stroke-width="2"/>
<g transform="translate(70 245)">
  <rect width="1460" height="520" rx="8" fill="#FFFDF9" stroke="#DED8CE" stroke-width="2" filter="url(#shadow)"/>
  <rect x="0" y="0" width="310" height="520" rx="8" fill="#14233B"/>
  <text x="44" y="70" class="white h">能力维度</text>
  <text x="44" y="135" class="white b">对话与知识问答</text><text x="44" y="188" class="white b">家长端主动留言</text><text x="44" y="241" class="white b">摄像头分心检测</text><text x="44" y="294" class="white b">无需按键主动播报</text><text x="44" y="347" class="white b">三学段策略切换</text><text x="44" y="400" class="white b">本地运行状态可视</text><text x="44" y="453" class="white b">官方方案安全回退</text>
  <rect x="310" width="540" height="76" fill="#F3EEE6"/><text x="580" y="49" text-anchor="middle" class="h">官方控制台方案</text>
  <rect x="850" width="610" height="76" fill="#EAF5EF"/><text x="1155" y="49" text-anchor="middle" class="h" fill="#2F8B68">本地增强方案</text>
  <text x="580" y="135" text-anchor="middle" class="h" fill="#3277C7">●</text><text x="1155" y="135" text-anchor="middle" class="h" fill="#2F8B68">●</text><path d="M310 154H1460" stroke="#DED8CE" stroke-width="1"/><text x="580" y="188" text-anchor="middle" class="h" fill="#76808D">—</text><text x="1155" y="188" text-anchor="middle" class="h" fill="#2F8B68">●</text><path d="M310 207H1460" stroke="#DED8CE" stroke-width="1"/><text x="580" y="241" text-anchor="middle" class="h" fill="#76808D">—</text><text x="1155" y="241" text-anchor="middle" class="h" fill="#2F8B68">●</text><path d="M310 260H1460" stroke="#DED8CE" stroke-width="1"/><text x="580" y="294" text-anchor="middle" class="h" fill="#76808D">—</text><text x="1155" y="294" text-anchor="middle" class="h" fill="#2F8B68">●</text><path d="M310 313H1460" stroke="#DED8CE" stroke-width="1"/><text x="580" y="347" text-anchor="middle" class="h" fill="#76808D">△</text><text x="1155" y="347" text-anchor="middle" class="h" fill="#2F8B68">●</text><path d="M310 366H1460" stroke="#DED8CE" stroke-width="1"/><text x="580" y="400" text-anchor="middle" class="h" fill="#76808D">—</text><text x="1155" y="400" text-anchor="middle" class="h" fill="#2F8B68">●</text><path d="M310 419H1460" stroke="#DED8CE" stroke-width="1"/><text x="580" y="453" text-anchor="middle" class="h" fill="#3277C7">●</text><text x="1155" y="453" text-anchor="middle" class="h" fill="#2F8B68">●</text><path d="M310 472H1460" stroke="#DED8CE" stroke-width="1"/>
</g>
<g transform="translate(475 810)"><rect x="0" y="0" width="260" height="38" rx="19" fill="#3277C7" opacity=".13"/><text x="130" y="25" text-anchor="middle" class="s" fill="#3277C7" font-weight="800">官方：稳定对话底座</text><rect x="330" y="0" width="310" height="38" rx="19" fill="#2F8B68" opacity=".13"/><text x="485" y="25" text-anchor="middle" class="s" fill="#2F8B68" font-weight="800">本地：主动感知与干预</text></g>
</svg>
